<?xml version="1.0" encoding="utf-8"?>
<!-- Generator: Adobe Illustrator 19.0.0, SVG Export Plug-In . SVG Version: 6.00 Build 0)  -->
<svg version="1.1" id="图层_1" xmlns="http://www.w3.org/2000/svg" xmlns:xlink="http://www.w3.org/1999/xlink" x="0px" y="0px"
	 viewBox="-359 546.5 505 131" style="enable-background:new -359 546.5 505 131;" xml:space="preserve">
<style type="text/css">
	.st0{enable-background:new    ;}
	.st1{fill:#FFFFFF;}
	.st2{fill:url(#SVGID_1_);}
</style>
<g>
	<g class="st0">
		<path class="st1" d="M-321.4,587.6c-2.9,0.3-5.4-2.2-7.5-7.4c-2.3,2.4-5,4.7-8.1,7c-0.5-0.7-1.2-1.5-2.1-2.3
			c3.6-2.5,6.6-5.1,9-7.9c-1.5-4.6-2.4-10.9-2.8-18.9h-16.4v6.7h12c0,2-0.1,3.9-0.2,5.7s-0.2,3.7-0.3,5.8c-0.1,4.2-1.9,6.3-5.7,6.2
			c-1.4,0-2.7,0-4,0c-0.2-1.3-0.4-2.3-0.6-3.2c1.4,0.1,2.8,0.2,4,0.1c2.1,0.2,3.2-0.9,3.3-3.3c0.2-2.9,0.4-5.8,0.4-8.7h-8.9
			c0,4.9-0.4,8.7-1.1,11.6c-0.7,2.8-1.9,5.8-3.8,8.8c-0.8-0.6-1.7-1.3-2.6-2c1.8-2.9,3-5.7,3.6-8.4c0.6-2.7,0.8-6.8,0.8-12.1v-10.1
			h19.3c-0.1-2.6-0.2-5.3-0.2-8.1h3c0,3,0.1,5.7,0.2,8.1h14.3v2.7h-14.2c0.4,7,1.2,12.3,2.2,15.9c2.4-3.2,4.6-7.2,6.6-11.8l2.9,1.2
			c-2.6,5.5-5.4,10.2-8.4,14.1c1.7,4.8,3.4,7.1,5.1,6.9c1,0.1,1.8-0.7,2.4-2.4c0.4-1.6,0.7-3.4,1-5.6c0.9,0.5,1.8,0.8,2.7,1.1
			c-0.3,2.4-0.7,4.4-1.3,6.1C-317.5,586.3-319.1,587.7-321.4,587.6z M-321.1,554.4c-1.8-1.5-3.8-2.9-6-4.3l2-1.8
			c2.2,1.4,4.3,2.8,6.1,4.2L-321.1,554.4z"/>
		<path class="st1" d="M-307.3,588.1c-0.7-0.8-1.5-1.7-2.5-2.8c5.5-3.6,9.5-7.2,11.8-10.8c2.4-3.6,3.8-8.1,4.4-13.5H-309V558h15.7
			c0.3-3.3,0.4-6.9,0.5-10.8h3.4c-0.1,3.9-0.3,7.5-0.6,10.8h18.1c-0.1,3.2-0.2,6.6-0.4,10.3c-0.2,3.7-0.3,7.1-0.5,10.2
			c0,5.7-2.7,8.5-8.1,8.4c-3.9,0.1-6.5,0.1-7.9,0.1c-0.2-1.3-0.4-2.5-0.8-3.6c0.9,0.1,2.1,0.1,3.6,0.1c1.5,0.1,2.9,0.1,4.1,0.1
			c2.1,0,3.5-0.4,4.3-1.2c0.8-0.8,1.3-2.3,1.4-4.4c0.2-2.2,0.3-4.8,0.4-7.9c0.1-3,0.2-6.1,0.2-9.1h-15c-0.7,6-2.3,11.1-4.8,15.1
			C-297.5,580.2-301.6,584.2-307.3,588.1z M-299.9,556c-1.8-2-3.8-4.1-6-6.2l2.3-1.9c2.2,1.9,4.3,3.9,6.2,5.8L-299.9,556z
			 M-282.5,575.8c-2.2-2.5-4.4-4.8-6.6-7l2.4-1.8c2.4,2.2,4.7,4.4,6.8,6.6L-282.5,575.8z"/>
		<path class="st1" d="M-261.2,578.7c-1.1-0.6-2.2-1.1-3.3-1.5c1.9-3.4,3.6-6.7,4.9-9.9c1.4-3.2,2.6-6.7,3.8-10.4l3.4,1
			C-254.8,564.9-257.7,571.8-261.2,578.7z M-253.5,587.4c-0.2-1.1-0.4-2.3-0.7-3.5c1.7,0.1,3.4,0.1,5.3,0.1c2.7,0.2,3.9-0.9,3.7-3.5
			v-32.7h3.3v33.7c0.2,3.9-1.6,5.8-5.7,5.8C-249.4,587.3-251.4,587.4-253.5,587.4z M-226.8,578.1c-2.8-6.5-5.9-13.2-9.3-20.1
			l3.1-1.1c1.5,3,3.1,6.3,4.9,9.9c1.8,3.6,3.4,6.9,4.8,9.9L-226.8,578.1z"/>
		<path class="st1" d="M-218.2,566.9v-3h18.7v-16.2h3.2v16.2h18.5v3h-16.1c3.6,6.1,9.1,10.9,16.6,14.3c-0.7,1.1-1.4,2.1-2,3.1
			c-4.3-2.4-7.7-4.9-10.4-7.5c-2.6-2.6-4.8-5.7-6.6-9.3V588h-3.2v-20.2c-1.7,3.4-3.8,6.5-6.5,9.2s-6.2,5.5-10.8,8.2
			c-0.6-0.9-1.2-1.8-2-2.8c4.2-2.4,7.6-4.8,10.2-7.2c2.6-2.4,4.8-5.1,6.7-8.2H-218.2z M-207.1,560.9c-2.6-3.2-5.1-6.2-7.7-8.8
			l2.4-1.8c2.8,3,5.5,5.9,8,8.7L-207.1,560.9z M-188.8,561.2l-2.4-2c2.8-3,5.3-6,7.5-8.9l2.7,1.8C-183.4,554.9-186,558-188.8,561.2z
			"/>
		<path class="st1" d="M-171.5,553.7v-2.8h19.1v2.8h-6.6v10.9h5.8v2.8h-5.8v11.2c2.2-0.4,4.4-0.7,6.7-1.2c-0.1,0.9-0.1,1.9,0,3
			c-2.2,0.4-5.1,0.9-8.6,1.5c-3.6,0.6-7.3,1.4-11.2,2.2l-0.6-3.2c1.1-0.2,2.2-0.3,3.2-0.4V561h2.9v19.1c1.6-0.3,3.1-0.6,4.8-0.9
			v-25.5H-171.5z M-155.1,587.9c-0.6-1-1.3-1.9-2.1-2.8c5-2.5,8.9-5.3,11.6-8.3c-2.6-3.7-4.4-8.5-5.3-14.5c-0.6,0.9-1.2,1.7-1.8,2.5
			c-0.6-0.8-1.3-1.7-2.1-2.5c3.3-4.3,6-9.3,8-15l3,0.9c-0.8,2.2-1.8,4.4-2.8,6.5h15.4v2.8h-3.8c-0.8,8-3,14.5-6.6,19.4
			c2.6,2.8,6.1,5.3,10.6,7.5c-0.8,1-1.5,2.1-2,3.1c-4.5-2.6-8-5.4-10.6-8.3C-146.5,582.5-150.3,585.3-155.1,587.9z M-148.3,557.6
			c-0.2,0.4-0.4,0.7-0.6,1c1,6.9,2.7,12.2,5.1,15.8c3-4.3,4.8-9.9,5.4-16.8H-148.3z"/>
		<path class="st1" d="M-87.3,565.1c-4.5-2.2-8.1-4.4-10.9-6.6c-2.8-2.2-5.3-4.6-7.5-7.4c-2.3,2.8-5,5.3-8,7.5
			c-3,2.3-6.6,4.7-11.1,7c-0.6-0.9-1.3-1.8-2-2.8c5-2.4,9.1-4.9,12.3-7.5c3.2-2.5,5.8-5.2,7.8-8.2l3.7,0.4c-0.3,0.4-0.7,0.9-1,1.2
			c2.3,2.8,4.9,5.3,7.8,7.4c2.9,2.1,6.5,4.1,10.8,6C-86.2,563.3-86.8,564.2-87.3,565.1z M-125.8,585.8v-2.9h6.6v-16h3.1v16h9.3
			v-22.8h3.2v9h12.4v2.8h-12.4v11h16.7v2.9H-125.8z"/>
		<path class="st1" d="M-78.3,587.7c-0.7-0.7-1.5-1.4-2.3-2c1.1-1.8,1.8-3.7,2.2-5.8c0.4-2.2,0.7-5.4,0.6-9.6v-20.8h11.8v33.4
			c0.1,2.8-1.2,4.2-4,4.4c-1.1,0-2.3,0-3.6,0c-0.1-1-0.3-1.9-0.5-2.8c0.9,0.1,2,0.1,3.1,0.1c1.5,0.1,2.2-0.7,2.2-2.2v-9.1h-6.2
			c-0.1,3.5-0.4,6.3-0.9,8.4C-76.3,583.8-77.1,585.8-78.3,587.7z M-74.9,552.1v8h6.2v-8H-74.9z M-74.9,570.7L-74.9,570.7l6.2,0.1
			v-8.2h-6.2V570.7z M-40.9,587.5c-3.7-1.9-6.6-3.9-8.8-6c-1.9,2-4.3,3.9-7.2,5.9c-0.7-0.8-1.3-1.7-2.1-2.6c3-1.9,5.4-3.7,7.3-5.5
			c-2.3-3-4.1-6.9-5.3-11.9l0.6-0.2H-59v20.7h-2.9v-38.3h19.7c-0.1,2.3-0.2,4.3-0.4,6.1c-0.1,3.6-2.1,5.4-6,5.2c-1.6,0-3.5,0-5.4,0
			c-0.1-0.8-0.2-1.6-0.4-2.6c1.6,0,3.2,0,4.9,0c2.8,0.1,4.1-0.8,4-2.8c0.1-1.3,0.2-2.4,0.2-3.3H-59v12.3h17.3v2.8
			c-1.6,4.9-3.5,8.8-5.9,11.8c2,1.9,4.9,3.8,8.4,5.4C-39.9,585.7-40.4,586.6-40.9,587.5z M-44.7,567.2h-9.7c1.3,4.2,2.8,7.5,4.6,9.9
			C-47.6,574.5-45.9,571.2-44.7,567.2z"/>
		<path class="st1" d="M-33.3,569c-0.4-0.9-0.9-1.8-1.5-2.8c7.4-1,13.3-2.4,17.8-4c-2.8-1.7-5.4-4-7.8-6.7c-2,1.9-4.3,3.9-6.8,5.9
			c-0.7-0.9-1.5-1.7-2.2-2.3c5.2-3.6,9.3-7.6,12.4-12l3.2,0.9c-0.8,1-1.7,2.1-2.5,3.1H1.2v2.9c-3.6,3.5-7.3,6.3-11.3,8.4
			c4.2,1.5,9.8,2.6,16.7,3.1c-0.5,1-0.9,1.9-1.4,2.9c-7.9-0.8-14.2-2.3-18.8-4.4C-18.5,566-25.1,567.7-33.3,569z M-13.9,587.2
			c-0.1-1.1-0.2-2.1-0.5-3.2c1.9,0.1,4.1,0.1,6.7,0.1c3.4,0.3,5.1-1.3,5.2-4.9c0.1-0.7,0.1-1.5,0.2-2.6c0.1-1.1,0.1-2,0.1-2.7h-14.5
			c-0.7,3.6-2.2,6.5-4.6,8.6c-2.3,2.1-6,4-11,5.7c-0.8-1.2-1.4-2.1-2-2.8c4.6-1.4,7.9-3,10.1-4.6c2.2-1.7,3.6-3.9,4.3-6.8h-11.6
			v-2.6h12.1c0.2-1.3,0.3-2.7,0.4-4.3h3.2c-0.1,1.5-0.3,3-0.4,4.3H1.2c-0.2,2.8-0.3,5.5-0.5,8.1c-0.2,2.8-0.8,4.8-2,5.8
			c-1.1,1.1-3.1,1.8-5.9,1.8C-9.7,587.2-12,587.2-13.9,587.2z M-2.9,553.6h-19.9c2.8,3.1,5.8,5.4,9.1,7.1
			C-9.8,558.9-6.2,556.6-2.9,553.6z"/>
		<path class="st1" d="M50.6,565.1c-8.3-3.9-14.5-8.5-18.5-13.9c-3.2,3.8-7.1,7.3-11.9,10.4h23.6v2.8H20.1v-2.7
			c-2.1,1.3-4.3,2.7-6.8,4c-0.5-0.9-1.1-1.9-1.8-2.9c9.4-4.6,16.1-9.9,19.9-15.8l3.7,0.5c-0.4,0.6-0.8,1.1-1.2,1.6
			c4.3,5.5,10.5,9.9,18.6,13.1C51.8,563,51.2,564,50.6,565.1z M17.3,588v-18.1h29.3V588h-3.1v-2.7H20.4v2.7H17.3z M20.4,572.7v9.8
			h23.1v-9.8H20.4z"/>
		<path class="st1" d="M58.5,570.8c-0.4-1.3-0.8-2.5-1.2-3.7c4.7-6.2,8-12.8,10-19.9l3.1,0.9c-1.1,3.4-2.5,6.6-4,9.7v30.1h-3v-24.4
			C61.7,566.1,60.1,568.6,58.5,570.8z M70.1,587.8c-0.7-0.9-1.5-1.8-2.2-2.7c5-3.6,8.4-7.4,10.4-11.5c2-4.1,3-9.3,3.2-15.7
			c0.2-3.8,0.3-7.3,0.3-10.6H85c0,4.1-0.2,7.9-0.4,11.5c0.9,6.6,2.4,11.7,4.6,15.4s5.4,7.2,9.7,10.3c-0.9,1-1.7,2-2.4,2.9
			c-3.9-3.2-6.9-6.3-8.9-9.5c-2-3.3-3.4-7.1-4.3-11.6c-0.7,4.7-2.1,8.7-4.1,11.9C77.2,581.5,74.2,584.7,70.1,587.8z M74.3,567.6
			c-1.6-3.3-3.4-6.5-5.4-9.8l2.7-1.3c1.9,3.4,3.8,6.6,5.6,9.7L74.3,567.6z M91,567.6l-2.7-1.7c2.2-2.9,4.4-6.2,6.6-9.7l2.7,1.5
			C95.3,561.4,93.1,564.7,91,567.6z"/>
		<path class="st1" d="M142,587c-5.5-3.1-9.6-6.6-12.3-10.4c-2.7-3.8-4.6-8.7-5.6-14.8c-1,5.8-2.9,10.7-5.7,14.7
			c-2.8,4-7,7.7-12.5,11.1c-0.7-1-1.5-2-2.2-2.8c5.9-3.5,10.2-7.4,12.9-11.5c2.7-4.1,4.4-9.1,5.2-15.1c0.4-3.4,0.6-6.8,0.5-10.3h3.3
			c0,1.9-0.1,4-0.2,6.2c1.2,8.4,3.2,14.7,6,19.1c2.8,4.3,7.1,8,12.9,10.9C143.5,585.1,142.7,586,142,587z"/>
	</g>
	<g class="st0">
		<path class="st1" d="M-355.6,676c-0.4-0.3-0.8-0.7-1.2-1c0.9-1.4,1.5-2.8,1.9-4.2c0.4-1.4,0.5-3.4,0.5-5.9v-6.6h7.5v-4.9h1.4v1.9
			h9.2v1.2h-9.2v1.9h10.4l-0.3,3.3c-0.5-0.1-0.9-0.1-1.4-0.1l0.3-2.1H-353v5.6c0.1,2.5-0.1,4.5-0.5,6.1S-354.6,674.3-355.6,676z
			 M-352.9,675.3V674h5.9v-6.7h1.3v6.7h3.3v-6.8h1.3v6.8h6.3v1.3H-352.9z M-351.8,663.5l-0.1-1.1l4.9-0.4v-1.9h1.4v1.8l6.5-0.5
			l0.1,1.1l-6.6,0.5v0.6c-0.1,1,0.5,1.4,1.8,1.4h4.3c1,0.1,1.6-0.3,1.8-1c0.1-0.4,0.2-0.9,0.3-1.6c0.5,0.1,0.9,0.3,1.3,0.4
			c-0.1,0.6-0.2,1.1-0.4,1.7c-0.3,1.2-1.2,1.7-2.8,1.7h-4.8c-1.9,0-2.8-0.8-2.7-2.4v-0.6L-351.8,663.5z M-349.6,672
			c-0.8-1.4-1.5-2.6-2.2-3.7l1.1-0.7c0.8,1.2,1.6,2.4,2.3,3.7L-349.6,672z M-338.9,672.1l-1.1-0.8c1-1.2,1.9-2.4,2.7-3.6l1.1,0.7
			C-336.9,669.6-337.8,670.8-338.9,672.1z"/>
		<path class="st1" d="M-330.9,666.2c-0.2-0.5-0.4-1-0.7-1.6c2.1-3.1,3.7-6.8,5-11.1l1.4,0.5c-0.5,1.7-1.1,3.3-1.8,4.9v17.2h-1.4
			v-14.4C-329.1,663.3-329.9,664.8-330.9,666.2z M-325.4,674.9v-1.4h8.1c0.6-1.7,1.4-3.7,2.1-6.1s1.5-4.5,2.1-6.5l1.4,0.4
			c-0.7,2.3-1.4,4.5-2.2,6.7c-0.7,2.2-1.4,4-2,5.5h6.3v1.4H-325.4z M-324.7,659.2v-1.3h14.6v1.3H-324.7z M-320.4,671.2
			c-0.5-1.6-0.9-3.3-1.5-5.1c-0.5-1.9-1-3.4-1.5-4.7l1.4-0.4c0.5,1.5,0.9,3.1,1.5,4.9c0.5,1.8,1,3.4,1.5,5L-320.4,671.2z
			 M-317.4,657.8c-0.5-1.4-0.9-2.7-1.5-3.8l1.4-0.5c0.5,1.2,0.9,2.4,1.5,3.8L-317.4,657.8z"/>
		<path class="st1" d="M-304.5,674.1l-1-1.3c0.6-0.6,0.8-1.3,0.8-2.2v-16.2h1.4v16.9c2.2-1.3,4.4-2.7,6.4-4.1
			c0.1,0.6,0.2,1.1,0.3,1.6c-1.8,1.2-4,2.6-6.6,4.4C-303.6,673.4-304,673.7-304.5,674.1z M-285.7,675.3c-1.7-2.2-3.3-4.1-4.7-5.8
			c-1.4,2.4-3.9,4.6-7.6,6.6c-0.3-0.5-0.6-1-1-1.4c3.5-1.7,5.9-3.6,7.2-5.9c1.3-2.2,2.1-5.2,2.2-8.9c0.1-1.8,0.2-3.8,0.1-6h1.5
			c0,1.8-0.1,3.7-0.2,6c-0.1,3.3-0.7,6-1.6,8.1c1.8,2,3.6,4,5.3,6.1L-285.7,675.3z M-295.9,659.9c-1-2.1-2.1-4-3-5.7l1.2-0.7
			c1,1.8,2.1,3.7,3.2,5.6L-295.9,659.9z"/>
		<path class="st1" d="M-280.8,668.4c-0.2-0.5-0.4-0.9-0.7-1.3c2.1-1.9,4-4.4,5.7-7.6l1.2,0.8c-0.7,1.2-1.4,2.4-2.1,3.4V676h-1.3
			v-10.4C-278.9,666.6-279.8,667.5-280.8,668.4z M-280.4,661.2c-0.2-0.4-0.4-0.8-0.7-1.3c2-1.7,3.7-3.8,5.3-6.4l1.2,0.8
			C-276.2,657-278.2,659.3-280.4,661.2z M-273.3,657.9v-1.2h5.6v-3.1h1.4v3.1h5.9v1.2h-5.9v3.8h6.8v1.2h-14.8v-1.2h6.6v-3.8H-273.3z
			 M-274.4,667.5v-1.3h9.8V664h1.4v2.1h3.7v1.3h-3.7v5.5c0.1,1.8-0.9,2.8-2.9,2.8c-1,0-2,0-2.9,0c-0.1-0.5-0.2-1-0.3-1.6
			c1,0.1,2,0.1,2.9,0.1c1.4,0.1,2-0.5,1.9-1.9v-5H-274.4z M-269.8,672.6c-0.4-0.5-0.9-1-1.5-1.7s-1.1-1.2-1.6-1.6l1-1
			c1.3,1.3,2.3,2.4,3.1,3.2L-269.8,672.6z"/>
		<path class="st1" d="M-252.6,672.3h1.8v1.8c0,1.7-0.3,3.2-0.9,4.5h-0.9c0.5-1.3,0.8-2.8,0.8-4.5h-0.8V672.3z"/>
		<path class="st1" d="M-231.2,673.6l-0.2-1.4c0.5-0.1,1.1-0.1,1.8-0.2v-17h7.6v16l1.5-0.2c-0.1,0.5-0.1,0.9-0.1,1.3
			C-224,672.5-227.5,673-231.2,673.6z M-228.3,656.3v4.2h5v-4.2H-228.3z M-228.3,661.7v4.2h5v-4.2H-228.3z M-228.3,671.9
			c1.6-0.2,3.3-0.4,5-0.6v-4.2h-5V671.9z M-221.4,676.1c-0.3-0.4-0.6-0.8-1-1.1c1.5-1.4,2.6-3.1,3.3-5c0.7-1.9,1.1-4.5,1.3-7.8
			l0.1-2.4h-2.7v-1.3h2.7l0.1-4.8h1.4c-0.1,1.5-0.1,3.1-0.1,4.8h5.6c-0.1,2.7-0.1,5.2-0.1,7.6c0,2.4-0.1,4.5-0.2,6.2
			c0,2.1-1,3.1-2.9,3.1c-0.8,0.1-1.7,0.1-2.8,0.1c-0.1-0.5-0.2-0.9-0.4-1.5c1.1,0.1,2.1,0.1,2.8,0.1c1.3,0,2-0.7,2-2
			c0.1-1.7,0.2-3.7,0.3-6.1c0.1-2.3,0.1-4.5,0.1-6.4h-4.3v2.4c-0.2,3.5-0.7,6.2-1.4,8.2C-218.5,672.4-219.7,674.3-221.4,676.1z"/>
		<path class="st1" d="M-205.2,675.9c-0.3-0.5-0.7-0.8-1-1.2c2.9-1.8,4.9-3.7,6-5.7c1.1-2.1,1.8-4.7,2-8.1c0.1-0.3,0.1-0.5,0.1-0.7
			h-7.4v-1.4h7.4c0.1-1.8,0.2-3.6,0.2-5.3h1.5c0,1.9-0.1,3.6-0.2,5.3h10.3c-0.1,1.6-0.1,3.5-0.2,5.5c-0.1,2.1-0.1,4-0.2,5.8
			c-0.1,1.8-0.4,3.1-1.1,3.9c-0.7,0.8-1.8,1.2-3.5,1.2c-1.7,0-2.9,0-3.9,0c0-0.7-0.1-1.2-0.2-1.7c1.4,0.1,2.7,0.1,3.9,0.1
			c2.1,0.2,3.2-1.1,3.2-4c0.1-1.4,0.2-2.9,0.2-4.6c0-1.7,0.1-3.3,0.1-4.8h-8.9c0,0.1,0,0.2,0,0.3c-0.2,3.8-0.9,6.8-2.1,9
			C-200.1,671.8-202.2,673.9-205.2,675.9z"/>
		<path class="st1" d="M-180.2,656.6v-1.4h19.8v1.4h-4.6v7.2h5.5v1.4h-5.5v10.6h-1.5v-10.6h-7.5c0,2.8-0.4,5-1.3,6.5
			c-0.8,1.6-2.4,3-4.6,4.3c-0.3-0.4-0.7-0.8-1.1-1.2c2.1-1.2,3.5-2.4,4.3-3.8s1.2-3.3,1.2-5.9h-5.8v-1.4h5.8v-7.2H-180.2z
			 M-173.9,656.6v7.2h7.5v-7.2H-173.9z"/>
		<path class="st1" d="M-155.4,660v-1.6c0.6-1.2,1.1-2.6,1.6-4.1l1.5,0.3c-0.5,1.5-1.1,2.9-1.7,4.1h5.4c0.3-1.6,0.6-3.3,1-5.3
			l1.4,0.2c-0.3,1.8-0.6,3.5-1,5.1h12.6v1.3h-13c-0.3,1.2-0.6,2.3-1,3.4h11.3v1.2c-1.1,2.8-2.7,5.1-4.9,6.8c1.8,1.2,4.2,2.2,7.3,2.9
			c-0.3,0.5-0.5,1-0.8,1.5c-3.2-0.9-5.8-2.1-7.7-3.5c-2,1.2-4.7,2.5-8.3,3.7c-0.3-0.5-0.6-0.9-0.9-1.4c3.6-1,6.3-2.1,8.1-3.2
			c-2-1.7-3.5-3.9-4.5-6.7h-0.2c-1.3,3.5-3.5,6.9-6.4,10.3c-0.3-0.5-0.7-0.8-1.1-1.2c2.1-2.2,3.7-4.4,4.8-6.5
			c1.1-2.1,2.1-4.5,2.8-7.3H-155.4z M-138.8,664.7h-8.8c0.9,2.3,2.3,4.3,4.3,5.9C-141.2,669-139.7,667-138.8,664.7z M-138.6,657.7
			c-1.3-1.1-2.5-2.1-3.7-2.9l0.9-0.9c1.3,0.8,2.6,1.8,3.8,2.7L-138.6,657.7z"/>
		<path class="st1" d="M-128.9,657.7v-1.3h6.3v-2.8h1.3v2.8h5.6v1.3h-5.6v3.2h2.9c2.1-1.6,4.1-3.5,5.9-5.7l1.2,0.8
			c-1.6,1.9-3.3,3.5-5,4.9h6.6v1.3h-8.2c-1.5,1.1-3.1,2.1-4.7,3h9.3v10.8h-1.3v-1.5h-11v1.5h-1.3v-8.8c-1.3,0.6-2.6,1.1-4,1.7
			c-0.2-0.5-0.4-0.9-0.7-1.3c4.4-1.4,8.1-3.3,11.3-5.5h-10.9v-1.3h8.6v-3.2H-128.9z M-124.9,666.4l-0.7,0.3v2.6h11v-2.9H-124.9z
			 M-125.6,670.5v2.9h11v-2.9H-125.6z"/>
		<path class="st1" d="M-105.6,659.7v-1.4h5v-4.6h1.4v4.6h7.4v-4.6h1.4v4.6h4.9v1.4h-4.9v6.8h5.8v1.3h-21.7v-1.3h5.8v-6.8H-105.6z
			 M-105.2,675.8c-0.3-0.5-0.7-0.9-1-1.3c2.7-1.6,5.2-3.2,7.4-4.9l1.1,1.1C-99.9,672.4-102.4,674.1-105.2,675.8z M-99.2,659.7v6.8
			h7.4v-6.8H-99.2z M-86.2,675.7c-2.5-1.8-4.9-3.4-7.2-5l0.9-1.1c2.3,1.5,4.8,3.1,7.2,4.8L-86.2,675.7z"/>
		<path class="st1" d="M-80.6,676c-0.3-0.3-0.7-0.5-1-0.8c0.7-0.8,1.1-1.7,1.4-2.6c0.3-0.9,0.4-2.2,0.4-4v-3.1h4.7v8.2
			c0.1,1.4-0.6,2.1-2.1,2.1c-0.5,0-1,0-1.4,0c0-0.4-0.1-0.8-0.2-1.1c0.3,0,0.8,0,1.4,0c0.8,0.1,1.2-0.4,1.2-1.3v-1.2h-2.7
			C-79.1,673.6-79.6,674.8-80.6,676z M-81.3,656.6v-1.1H-71c-0.2-0.7-0.4-1.3-0.6-1.9l1.3-0.3c0.3,0.7,0.5,1.4,0.7,2.1h9.9v1.1
			h-17.9v1.6H-62v1.1h-16.9v-2.6H-81.3z M-78.8,664v-3.4h16.5v3.4H-78.8z M-78.7,669.3c0,0.7,0,1.4-0.1,2h2.6v-2H-78.7z
			 M-78.7,666.4v2h2.5v-2H-78.7z M-77.5,661.6v1.5h14v-1.5H-77.5z M-73.8,676c-0.3-0.3-0.5-0.6-0.8-0.9c1.2-0.8,2.1-1.6,2.5-2.5
			c0.4-0.9,0.6-2.1,0.6-3.7v-1.5h1.1v1.5c0,1-0.1,1.8-0.2,2.5c0.8,0.8,1.5,1.7,2.2,2.4l-0.8,0.9c-0.5-0.7-1.1-1.5-1.8-2.2
			C-71.3,673.7-72.3,674.9-73.8,676z M-73.8,671.8v-6.3h5.7v6.3h-1.1v-5.4h-3.5v5.4H-73.8z M-67.8,676.1c-0.3-0.3-0.6-0.5-1-0.8
			c0.8-0.9,1.4-1.8,1.7-2.7c0.3-0.9,0.4-2.3,0.4-4.1v-3h4.7v8.3c-0.1,0.5,0.2,0.7,0.8,0.6c0.4,0.1,0.6-0.1,0.7-0.6
			c0.1-0.6,0.1-1.3,0.2-2.1c0.3,0.1,0.7,0.2,1,0.2c-0.1,0.8-0.1,1.6-0.2,2.3c-0.1,0.9-0.7,1.4-1.6,1.4h-0.6c-1,0-1.4-0.6-1.4-1.7
			v-7.4h-2.5v2.1c0,2-0.1,3.5-0.4,4.5S-66.9,675.1-67.8,676.1z M-64.2,671.2c-0.3-0.8-0.8-1.6-1.4-2.4l0.8-0.5
			c0.7,1,1.1,1.8,1.5,2.4L-64.2,671.2z"/>
	</g>
	
		<linearGradient id="SVGID_1_" gradientUnits="userSpaceOnUse" x1="-218" y1="613.98" x2="-356" y2="613.98" gradientTransform="matrix(1 0 0 -1 0 1224.47)">
		<stop  offset="0" style="stop-color:#FAD961"/>
		<stop  offset="1" style="stop-color:#FF6B02"/>
	</linearGradient>
	<rect x="-356" y="609.5" class="st2" width="138" height="2"/>
</g>
</svg>
