<?xml version="1.0" encoding="utf-8"?>
<!-- Generator: Adobe Illustrator 19.0.0, SVG Export Plug-In . SVG Version: 6.00 Build 0)  -->
<svg version="1.1" id="图层_1" xmlns="http://www.w3.org/2000/svg" xmlns:xlink="http://www.w3.org/1999/xlink" x="0px" y="0px"
	 viewBox="-268 546.5 687 131" style="enable-background:new -268 546.5 687 131;" xml:space="preserve">
<style type="text/css">
	.st0{enable-background:new    ;}
	.st1{fill:#FFFFFF;}
	.st2{fill:url(#SVGID_1_);}
</style>
<g>
	<g class="st0">
		<path class="st1" d="M-252.4,583.8c-1.8-2-3.5-3.8-5.2-5.4c-1.1,3.4-3.2,6.6-6.5,9.7c-0.5-0.7-1.2-1.5-1.9-2.2
			c2.8-2.5,4.7-5.1,5.7-7.8c1-2.7,1.5-6.5,1.4-11.3v-10.2h2.6v9.9c0,3.7-0.2,6.7-0.7,9.2c2.2,1.9,4.4,3.9,6.6,6L-252.4,583.8z
			 M-264,576.1V550h13v26.1h-2.4v-23.4h-8.3v23.4H-264z M-250,586.3l-0.6-3l2.6-0.4v-16.7h2.5v16.4c1.1-0.2,2.3-0.4,3.5-0.6v-18.7
			h2.5v6.7h3.9v2.6h-3.9v9c1.5-0.3,3.1-0.6,4.7-0.9c-0.1,1.1-0.1,2.1-0.1,3C-240.1,584.5-245.1,585.4-250,586.3z M-249.3,561.4v-2.7
			h14.4c-0.1-3.4-0.1-7.2-0.1-11.3h2.7c0,4.2,0,8,0.1,11.3h7.7v2.7h-7.6c0.1,4.7,0.3,8.5,0.6,11.4c0.3,2.9,0.7,5.4,1.2,7.6
			c0.7,3,1.4,4.3,2.2,4.1c0.5,0.1,1-0.6,1.3-2.2c0.1-1.5,0.3-3.3,0.5-5.4c0.8,0.4,1.5,0.6,2.2,0.8c-0.2,2.4-0.5,4.5-0.8,6.2
			c-0.5,2.5-1.6,3.7-3.2,3.6c-2.2,0.3-3.8-1.8-4.8-6.3c-1-4-1.7-10.6-2-19.8H-249.3z M-247.7,553.8v-2.6h10.2v2.6H-247.7z
			 M-227.7,556.6c-1-1.7-2.2-3.5-3.4-5.4l2.2-1.2c1.3,1.8,2.4,3.5,3.5,5.3L-227.7,556.6z"/>
		<path class="st1" d="M-199.7,561.5c-0.6-0.9-1.3-1.7-2-2.4c-4.9,0.2-9.4,0.4-13.7,0.7c-1.2,0.1-2.2,0.2-3.2,0.4l-1.3-2.7
			c1-0.5,1.9-1.2,2.7-2.2c2.4-2.5,4.6-5.3,6.7-8.4l3.1,1.2c-2.6,3.3-5.3,6.3-8,9.1c3.6-0.1,7.5-0.3,11.6-0.5
			c-1.1-1.3-2.2-2.5-3.4-3.9l2.2-1.6c2.5,2.6,5.1,5.5,7.6,8.5L-199.7,561.5z M-217.2,587.6v-24.3h16.6v19.5c0.1,2.8-1.3,4.3-4,4.3
			c-1.3,0-2.8,0-4.3,0c-0.2-0.9-0.3-1.8-0.6-2.7c1.3,0.1,2.6,0.1,3.8,0.1c1.6,0,2.3-0.6,2.2-1.9v-3.9h-10.9v8.8H-217.2z
			 M-214.4,565.8v4.2h10.9v-4.2H-214.4z M-214.4,572.3v4.2h10.9v-4.2H-214.4z M-190.7,586.9c-3.4,0.1-5.1-1.6-5.1-5.1V568h2.9v6.7
			c4.3-1.5,8.3-3.4,12.1-5.6l1.7,2.4c-4.5,2.4-9.1,4.4-13.8,6.1v3.7c-0.1,2,1,3,3.1,2.9h4.4c2,0,3.2-0.8,3.4-2.3
			c0.2-1.1,0.4-2.6,0.5-4.5c1,0.4,2,0.7,2.9,0.9c-0.2,1.9-0.5,3.5-0.8,4.6c-0.4,2.7-2.3,4.1-5.5,4H-190.7z M-190.6,565.6
			c-3.5,0.1-5.3-1.6-5.2-4.9v-13.3h2.9v7.4c4.1-1.5,7.9-3.3,11.4-5.3l1.7,2.4c-3.9,2-8.3,3.9-13.1,5.8v2.5c-0.1,1.9,0.9,2.8,3.1,2.7
			h4.4c2,0,3.1-0.8,3.4-2.4c0.2-1.1,0.4-2.6,0.6-4.4c1,0.4,1.9,0.7,2.9,0.9c-0.3,1.9-0.6,3.5-0.9,4.6c-0.5,2.7-2.4,4-5.5,4H-190.6z"
			/>
		<path class="st1" d="M-134.4,565.1c-8.3-3.9-14.5-8.5-18.5-13.9c-3.2,3.8-7.1,7.3-11.9,10.4h23.6v2.8h-23.7v-2.7
			c-2.1,1.3-4.3,2.7-6.8,4c-0.5-0.9-1.1-1.9-1.8-2.9c9.4-4.6,16.1-9.9,19.9-15.8l3.7,0.5c-0.4,0.6-0.8,1.1-1.2,1.6
			c4.3,5.5,10.5,9.9,18.6,13.1C-133.2,563-133.8,564-134.4,565.1z M-167.7,588v-18.1h29.3V588h-3.1v-2.7h-23.1v2.7H-167.7z
			 M-164.6,572.7v9.8h23.1v-9.8H-164.6z"/>
		<path class="st1" d="M-126.3,570.8c-0.4-1.2-1-2.3-1.5-3.4c1.8-2.5,3.6-5.6,5.3-9.2c1.7-3.6,3.2-7.3,4.3-11l3.1,0.9
			c-1.1,3.2-2.4,6.3-3.8,9.4v30.4h-3v-24.3C-123.2,566.1-124.7,568.6-126.3,570.8z M-113.7,566.2c-0.8-0.7-1.6-1.4-2.4-2.1
			c4-5.1,7-10.7,8.9-16.9l3.2,0.7c-0.9,2.2-1.7,4.1-2.5,5.9h20.1v2.9h-15v7.5h12.7v2.8h-12.7v7.8h13.8v2.8h-13.8v10.2h-3.1v-31.1
			h-3.3C-109.5,560.2-111.4,563.3-113.7,566.2z"/>
		<path class="st1" d="M-80.5,570.8c-0.4-1.3-0.8-2.5-1.2-3.7c4.7-6.2,8-12.8,10-19.9l3.1,0.9c-1.1,3.4-2.5,6.6-4,9.7v30.1h-3v-24.4
			C-77.3,566.1-78.9,568.6-80.5,570.8z M-68.9,587.8c-0.7-0.9-1.5-1.8-2.2-2.7c5-3.6,8.4-7.4,10.4-11.5c2-4.1,3-9.3,3.2-15.7
			c0.2-3.8,0.3-7.3,0.3-10.6h3.2c0,4.1-0.2,7.9-0.4,11.5c0.9,6.6,2.4,11.7,4.6,15.4s5.4,7.2,9.7,10.3c-0.9,1-1.7,2-2.4,2.9
			c-3.9-3.2-6.9-6.3-8.9-9.5c-2-3.3-3.4-7.1-4.3-11.6c-0.7,4.7-2.1,8.7-4.1,11.9C-61.8,581.5-64.8,584.7-68.9,587.8z M-64.7,567.6
			c-1.6-3.3-3.4-6.5-5.4-9.8l2.7-1.3c1.9,3.4,3.8,6.6,5.6,9.7L-64.7,567.6z M-48,567.6l-2.7-1.7c2.2-2.9,4.4-6.2,6.6-9.7l2.7,1.5
			C-43.7,561.4-45.9,564.7-48,567.6z"/>
		<path class="st1" d="M-34.5,570.8c-0.3-1.3-0.7-2.6-1.2-3.9c2-2.6,3.9-5.6,5.6-9.1s3.1-7,4.2-10.6l3.1,0.9
			c-1.1,3.3-2.4,6.5-3.9,9.6v30.1h-3.1v-24.2C-31.4,566.3-33,568.6-34.5,570.8z M-22.1,566v-2.9h11.3v-15.7h3.3v15.7H4v2.9H-7.5v7.1
			H5.6v3H-7.5v11.9h-3.3v-11.9h-13v-3h13V566H-22.1z M-16.9,560.5c-1.8-2.7-3.6-5.3-5.3-7.7l2.6-1.5c1.9,2.5,3.7,5,5.4,7.5
			L-16.9,560.5z M-1.8,560.7l-2.6-1.6c2.2-2.5,4.1-5.1,5.7-7.7l2.7,1.5C2.3,555.4,0.4,558-1.8,560.7z"/>
		<path class="st1" d="M18.3,590.7l-1.7-1.4c2.2-1.7,3.3-4,3.4-7.1h-3v-5.7h5.7v4.9C22.7,585.5,21.3,588.6,18.3,590.7z"/>
		<path class="st1" d="M45.3,558.4v-2.7H50v-8.1h2.8v8.1h4.4v2.7h-4.4v8.7c1.3-0.4,2.7-0.8,4.1-1.3c0,1,0,2.1,0.1,3
			c-1.4,0.4-2.8,0.7-4.3,1.2v12.8c0.1,2.9-1.2,4.5-4.2,4.6c-1,0-2.1,0-3.3,0c-0.1-1-0.2-2-0.5-3.1c1,0.1,2,0.1,3.1,0.1
			c1.4,0.1,2-0.7,2-2.2v-11.4c-1.6,0.4-3.2,1-4.9,1.6l-0.3-3.2c1.7-0.4,3.4-0.8,5.2-1.3v-9.5H45.3z M69.9,586v-11.7h-8
			c-0.2,2.9-0.7,5.3-1.3,7.4c-0.6,2-1.6,4.1-2.9,6.2c-0.8-0.7-1.6-1.3-2.6-1.9c1.6-2.3,2.7-4.8,3.3-7.6c0.7-2.7,1-6.8,0.9-12.3
			v-16.7h24.4v33.2c0.2,3.2-1.3,4.8-4.6,4.8c-1.3,0.1-2.6,0.1-3.7,0.1c-0.1-1-0.3-1.9-0.5-2.9c1.1,0.1,2.2,0.1,3.4,0.1
			c1.8,0.1,2.6-0.7,2.4-2.5v-7.8h-8V586H69.9z M62.2,566.2c0,2.1,0,3.9,0,5.4h7.8v-8.4h-7.7V566.2z M62.2,552.2v8.3h7.7v-8.3H62.2z
			 M80.8,552.2h-8v8.3h8V552.2z M72.8,563.3v8.4h8v-8.4H72.8z"/>
		<path class="st1" d="M91.4,558.5v-2.8h5.3v-8.2h2.9v8.2h4.4v2.8h-4.4v8.5c1.6-0.4,3.1-0.9,4.6-1.3c0,1,0,2,0.1,2.9
			c-1.5,0.4-3,0.9-4.7,1.3v12.7c0.2,3.1-1.2,4.6-4.3,4.8c-1.2,0.1-2.3,0.1-3.2,0.1c-0.2-1.1-0.4-2.2-0.6-3.1
			c0.8,0.1,1.8,0.1,2.9,0.1c1.6,0,2.4-0.7,2.3-2.2v-11.5c-1.9,0.6-3.7,1.2-5.4,1.8l-0.4-3.3c1.6-0.4,3.6-0.9,5.8-1.5v-9.3H91.4z
			 M112.5,586.8c-3.9,0.1-5.7-1.8-5.6-5.8v-20.2c-0.6,0.8-1.2,1.7-1.8,2.5c-0.7-0.8-1.2-1.7-1.8-2.5c3.1-4,5.6-8.5,7.3-13.5l3.2,0.4
			c-0.7,1.6-1.3,3.1-2,4.5h17.2c0,3.2-0.1,6.5-0.1,10c-0.1,3.5-0.1,6.5-0.2,9.1c0,4.6-2.1,6.8-6.2,6.8c-1.3,0-3.1,0-5.7,0
			c-0.2-1-0.3-2-0.6-3c1.8,0.1,3.6,0.1,5.4,0.1c2.9,0.2,4.3-1.2,4.2-4.3c0.1-2.1,0.2-4.8,0.3-8c0-3.3,0-6,0-8.1h-15.7
			c-1,1.9-2.1,3.7-3.3,5.5h13.5v12h-10.9v7.8c-0.1,2.6,1.1,3.9,3.5,3.8h10.6c2.7,0.2,4.3-0.7,4.7-2.8c0.3-1.2,0.6-2.5,0.9-4
			c0.9,0.4,1.9,0.8,3,1c-0.3,1.4-0.6,2.7-1,4c-0.7,3.2-3,4.7-6.7,4.6H112.5z M109.8,563.1v6.6h8v-6.6H109.8z"/>
		<path class="st1" d="M140.3,578.7c-1.1-0.6-2.2-1.1-3.3-1.5c1.9-3.4,3.6-6.7,4.9-9.9c1.4-3.2,2.6-6.7,3.8-10.4l3.4,1
			C146.7,564.9,143.8,571.8,140.3,578.7z M148,587.4c-0.2-1.1-0.4-2.3-0.7-3.5c1.7,0.1,3.4,0.1,5.3,0.1c2.7,0.2,3.9-0.9,3.7-3.5
			v-32.7h3.3v33.7c0.2,3.9-1.6,5.8-5.7,5.8C152.1,587.3,150.1,587.4,148,587.4z M174.8,578.1c-2.8-6.5-5.9-13.2-9.3-20.1l3.1-1.1
			c1.5,3,3.1,6.3,4.9,9.9c1.8,3.6,3.4,6.9,4.8,9.9L174.8,578.1z"/>
		<path class="st1" d="M183.3,566.9v-3H202v-16.2h3.2v16.2h18.5v3h-16.1c3.6,6.1,9.1,10.9,16.6,14.3c-0.7,1.1-1.4,2.1-2,3.1
			c-4.3-2.4-7.7-4.9-10.4-7.5c-2.6-2.6-4.8-5.7-6.6-9.3V588H202v-20.2c-1.7,3.4-3.8,6.5-6.5,9.2s-6.2,5.5-10.8,8.2
			c-0.6-0.9-1.2-1.8-2-2.8c4.2-2.4,7.6-4.8,10.2-7.2c2.6-2.4,4.8-5.1,6.7-8.2H183.3z M194.4,560.9c-2.6-3.2-5.1-6.2-7.7-8.8l2.4-1.8
			c2.8,3,5.5,5.9,8,8.7L194.4,560.9z M212.7,561.2l-2.4-2c2.8-3,5.3-6,7.5-8.9l2.7,1.8C218.1,554.9,215.5,558,212.7,561.2z"/>
		<path class="st1" d="M231.8,567c-0.7-0.6-1.7-1.3-2.7-2c3.9-4.6,6.8-9.8,8.8-15.6l3.3,0.8c-0.8,2.2-1.7,4.1-2.6,5.9h10.2v-8.8h3.3
			v8.8h15.9v3H252v9.8h14.6v3H252v10.8h18.1v3h-40.8v-3h19.5v-10.8h-15v-3h15V559H237C235.5,561.8,233.8,564.5,231.8,567z"/>
		<path class="st1" d="M295.3,569.8c-1.6-1.4-3.6-2.9-5.9-4.6c-2.9,2.2-7.1,4.1-12.7,5.8c-0.5-1-1.1-2-1.7-2.9
			c5.4-1.5,9.5-3.2,12.3-5.1c2.7-1.9,4.5-4.2,5.4-6.9h-16.4v-2.8h17.2c0.3-1.6,0.4-3.6,0.3-6h3.2c0,2.3-0.1,4.3-0.3,6h17.9v2.8H298
			c1.8,3.1,4,5.5,6.9,7.2c2.8,1.8,6.6,3.2,11.3,4.2c-0.6,1-1.1,2-1.7,3.1c-5.2-1.5-9.3-3.3-12.2-5.3c-2.9-2-5.1-4.8-6.9-8.3
			c-0.8,2.5-2.2,4.7-4.1,6.6c2.3,1.4,4.3,2.8,6.1,4.1L295.3,569.8z M278.1,584.8c-1.1-0.5-2.1-0.9-3-1.2c1.8-3.4,3.1-6.8,4.1-10.2
			l3,0.9C281,577.9,279.6,581.4,278.1,584.8z M291.2,586.6c-3.8,0.2-5.7-1.6-5.6-5.5v-8.3h3v7.8c-0.2,2.3,1.1,3.4,3.7,3.3h7.2
			c2.3,0.1,3.6-0.8,4-2.9c0.2-1.1,0.4-2.4,0.7-3.8c1,0.3,2,0.7,3,1c-0.3,1.7-0.6,3.2-0.9,4.5c-0.6,2.8-2.7,4.1-6.1,4H291.2z
			 M297.5,579c-1.7-2.4-3.4-4.4-5-6.2l2.3-1.7c1.7,1.9,3.5,3.8,5.2,5.9L297.5,579z M313.2,583.4c-1.8-3.1-3.7-6-5.7-8.9l2.6-1.4
			c1.9,2.8,3.9,5.7,6,8.8L313.2,583.4z"/>
		<path class="st1" d="M321.5,556.3v-3h19.4c-0.9-1.9-1.8-3.6-2.7-5.3l3.3-0.9c1,1.7,2,3.6,3.1,5.7l-1.8,0.6h19.1v3h-18.6v6.3h15.3
			v14.9c0.1,3.6-1.7,5.4-5.3,5.4c-1.6,0.1-3.4,0.1-5.3,0.1c-0.2-1-0.4-2.1-0.6-3.1c1.9,0.1,3.5,0.1,4.9,0.1c2.2,0.1,3.3-1,3.1-3.2
			v-11.1h-12.1V588h-3.2v-22.4H328v18.1h-3.2v-21.1h15.1v-6.3H321.5z"/>
		<path class="st1" d="M367.4,561.1v-3h5.2v-10.6h3v10.6h4.8v3h-4.8v13.8l4.4-1.8c0,1.1,0.1,2.1,0.3,3c-4,1.6-8.2,3.4-12.4,5.3
			l-1.1-3.1c1.8-0.7,3.7-1.4,5.8-2.2v-15H367.4z M378.7,583.4c-0.7-0.7-1.4-1.5-2.2-2.3c3.1-2.2,5.5-4.4,7.1-6.7
			c1.6-2.3,2.8-5.1,3.7-8.4h-5.7v-3.1l17.6-10.2h-16.6v-2.8h21.6v3.1l-17.6,10.4h20.1c-0.1,2.9-0.2,5.9-0.4,8.9
			c-0.1,3-0.2,5.5-0.4,7.4c0,5.1-2.1,7.5-6.3,7.4c-1.8,0-3.4,0-4.8,0c-0.2-1.1-0.4-2.2-0.7-3.1c1.2,0.1,2.7,0.2,4.6,0.1
			c2.8,0.3,4.1-1.2,4.2-4.4c0.1-1.8,0.2-3.9,0.3-6.4c0.1-2.5,0.2-4.9,0.3-7.2h-5.1c-0.9,5.3-2.3,9.6-4.1,13
			c-1.8,3.3-4.4,6.4-7.8,9.2c-0.7-0.7-1.5-1.5-2.4-2.3c3.3-2.5,5.7-5.2,7.4-8.1c1.7-2.9,3-6.9,4-11.8h-5.5c-1,4-2.3,7.2-4,9.9
			C384.5,578.4,382,581,378.7,583.4z"/>
	</g>
	<g class="st0">
		<path class="st1" d="M-265.1,659.7v-1.4h5v-4.6h1.4v4.6h7.4v-4.6h1.4v4.6h4.9v1.4h-4.9v6.8h5.8v1.3h-21.7v-1.3h5.8v-6.8H-265.1z
			 M-264.7,675.8c-0.3-0.5-0.7-0.9-1-1.3c2.7-1.6,5.2-3.2,7.4-4.9l1.1,1.1C-259.4,672.4-261.9,674.1-264.7,675.8z M-258.7,659.7v6.8
			h7.4v-6.8H-258.7z M-245.7,675.7c-2.5-1.8-4.9-3.4-7.2-5l0.9-1.1c2.3,1.5,4.8,3.1,7.2,4.8L-245.7,675.7z"/>
		<path class="st1" d="M-240.6,659.6v-1.3h3v-4.6h1.4v4.6h2.9v1.3h-2.9v4.9l2.9-1.1c0,0.3,0,0.8,0.1,1.4l-3,1.2v7.1
			c0.1,1.8-0.7,2.7-2.3,2.7c-0.6,0-1.2,0-2,0c-0.1-0.7-0.1-1.1-0.2-1.5c0.6,0.1,1.2,0.1,1.9,0c0.9,0.1,1.3-0.4,1.3-1.5v-6.4
			l-3.1,1.3l-0.3-1.5c0.9-0.3,2.1-0.7,3.4-1.2v-5.5H-240.6z M-232.6,656.5v-1.3h13.1v1.3h-6.1c-1,2.7-2.3,5.2-3.7,7.3h9v12h-1.3V674
			h-7.9v1.9h-1.4v-9.8c-0.8,1.2-1.8,2.3-2.9,3.4c-0.4-0.5-0.7-0.8-1-1.1c3.5-3.3,6-7.3,7.6-11.9H-232.6z M-229.5,665.1v7.6h7.9v-7.6
			H-229.5z"/>
		<path class="st1" d="M-215.6,658.4V657h10.5c-0.5-1.1-1-2.1-1.6-3l1.4-0.6c0.6,1,1.1,2,1.7,3.1l-1,0.5h10.4v1.4h-10.1v3.6h8.2v8.3
			c0.1,1.9-0.8,2.9-2.7,2.9c-0.8,0-1.7,0-2.7,0c-0.1-0.5-0.2-1-0.3-1.5c1,0.1,1.9,0.1,2.6,0.1c1.2,0.1,1.8-0.6,1.8-1.9v-6.6h-6.8
			v12.7h-1.4v-12.7h-6.7v10.4h-1.4V662h8.1v-3.6H-215.6z"/>
		<path class="st1" d="M-190.6,660.8v-1.3h2.9v-5.9h1.3v5.9h2.7v1.3h-2.7v7.9l2.5-1.2c0,0.5,0,1,0.1,1.4c-2.1,1-4.3,2-6.5,3.1
			l-0.6-1.4l3.2-1.4v-8.5H-190.6z M-185,673.7c-0.3-0.4-0.6-0.7-1.1-1c1.8-1.2,3.2-2.6,4.1-4s1.6-3.1,2.1-5.1h-3.2v-1.5l9.7-6h-9.1
			V655h11.3v1.4l-9.8,6.2h11c0,1.6,0,3.3-0.1,4.9c-0.1,1.7-0.1,3-0.2,4.1c-0.1,2.7-1.2,4.1-3.4,4c-0.9,0-1.7,0-2.4,0
			c-0.1-0.5-0.2-1-0.3-1.5c0.6,0.1,1.4,0.1,2.5,0.1c1.5,0.1,2.2-0.7,2.2-2.5c0.1-1,0.1-2.3,0.2-3.7c0.1-1.4,0.1-2.8,0.2-4.2h-3
			c-0.5,3-1.2,5.4-2.1,7.3s-2.4,3.6-4.2,5.2c-0.3-0.4-0.6-0.7-1.1-1c1.8-1.4,3.2-3,4.1-4.7s1.6-4,2.1-6.8h-3.1
			c-0.5,2.3-1.3,4.2-2.2,5.7C-181.8,670.8-183.2,672.3-185,673.7z"/>
		<path class="st1" d="M-162.1,672.3h1.8v1.8c0,1.7-0.3,3.2-0.9,4.5h-0.9c0.5-1.3,0.8-2.8,0.8-4.5h-0.8V672.3z"/>
		<path class="st1" d="M-120,663.3c-4.4-2.2-7.7-4.8-9.9-7.7c-2.4,3-5.8,5.7-10.2,8c-0.2-0.4-0.5-0.8-0.8-1.3
			c5-2.5,8.6-5.5,10.7-8.9l1.6,0.2l-0.6,0.9c2.3,3.1,5.6,5.6,10,7.4C-119.4,662.3-119.7,662.7-120,663.3z M-137.7,676.1v-10h15.3v10
			h-1.4v-1.6h-12.6v1.6H-137.7z M-136.3,667.4v5.9h12.6v-5.9H-136.3z M-136,662.9v-1.3h12v1.3H-136z"/>
		<path class="st1" d="M-115.3,666.3c-0.3-0.5-0.5-1-0.8-1.5c1-1.4,1.9-3.2,2.9-5.2c0.9-2,1.7-4.1,2.3-6.2l1.5,0.4
			c-0.7,1.8-1.3,3.6-2.1,5.3V676h-1.4v-14C-113.6,663.6-114.4,665-115.3,666.3z M-108.7,663.8c-0.3-0.3-0.7-0.6-1.1-0.9
			c2.1-2.8,3.7-5.9,4.8-9.4l1.4,0.4c-0.5,1.2-0.9,2.3-1.3,3.3h10.8v1.4h-8.1v4.4h6.9v1.3h-6.9v4.6h7.5v1.3h-7.5v5.9h-1.5v-17.4h-1.9
			C-106.4,660.4-107.5,662.1-108.7,663.8z"/>
		<path class="st1" d="M-90.1,659.7v-1.4h5v-4.6h1.4v4.6h7.4v-4.6h1.4v4.6h4.9v1.4h-4.9v6.8h5.8v1.3h-21.7v-1.3h5.8v-6.8H-90.1z
			 M-89.7,675.8c-0.3-0.5-0.7-0.9-1-1.3c2.7-1.6,5.2-3.2,7.4-4.9l1.1,1.1C-84.4,672.4-86.9,674.1-89.7,675.8z M-83.7,659.7v6.8h7.4
			v-6.8H-83.7z M-70.7,675.7c-2.5-1.8-4.9-3.4-7.2-5l0.9-1.1c2.3,1.5,4.8,3.1,7.2,4.8L-70.7,675.7z"/>
		<path class="st1" d="M-65.1,676c-0.3-0.3-0.7-0.5-1-0.8c0.6-0.8,1.1-1.7,1.4-2.6c0.3-0.9,0.4-2.2,0.4-4v-3.1h4.7v8.2
			c0.1,1.4-0.6,2.1-2.1,2.1c-0.5,0-1,0-1.4,0c0-0.4-0.1-0.8-0.2-1.1c0.3,0,0.8,0,1.4,0c0.8,0.1,1.2-0.4,1.2-1.3v-1.2h-2.7
			C-63.6,673.6-64.1,674.8-65.1,676z M-65.8,656.6v-1.1h10.4c-0.2-0.7-0.4-1.3-0.6-1.9l1.3-0.3c0.3,0.7,0.5,1.4,0.7,2.1h9.9v1.1
			h-17.9v1.6h15.6v1.1h-16.9v-2.6H-65.8z M-63.3,664v-3.4h16.5v3.4H-63.3z M-63.2,669.3c0,0.7,0,1.4-0.1,2h2.6v-2H-63.2z
			 M-63.2,666.4v2h2.5v-2H-63.2z M-62,661.6v1.5h14v-1.5H-62z M-58.3,676c-0.3-0.3-0.5-0.6-0.8-0.9c1.2-0.8,2.1-1.6,2.5-2.5
			c0.4-0.9,0.6-2.1,0.6-3.7v-1.5h1.1v1.5c0,1-0.1,1.8-0.2,2.5c0.8,0.8,1.5,1.7,2.2,2.4l-0.8,0.9c-0.5-0.7-1.1-1.5-1.8-2.2
			C-55.8,673.7-56.8,674.9-58.3,676z M-58.3,671.8v-6.3h5.7v6.3h-1.1v-5.4h-3.5v5.4H-58.3z M-52.3,676.1c-0.3-0.3-0.6-0.5-1-0.8
			c0.8-0.9,1.4-1.8,1.7-2.7c0.3-0.9,0.4-2.3,0.4-4.1v-3h4.7v8.3c-0.1,0.5,0.2,0.7,0.8,0.6c0.4,0.1,0.6-0.1,0.7-0.6
			c0.1-0.6,0.1-1.3,0.2-2.1c0.3,0.1,0.6,0.2,1,0.2c-0.1,0.8-0.1,1.6-0.2,2.3c-0.1,0.9-0.7,1.4-1.6,1.4h-0.6c-1,0-1.4-0.6-1.4-1.7
			v-7.4h-2.5v2.1c0,2-0.1,3.5-0.4,4.5S-51.4,675.1-52.3,676.1z M-48.7,671.2c-0.3-0.8-0.8-1.6-1.4-2.4l0.8-0.5
			c0.6,1,1.1,1.8,1.5,2.4L-48.7,671.2z"/>
	</g>
	
		<linearGradient id="SVGID_1_" gradientUnits="userSpaceOnUse" x1="-127" y1="613.98" x2="-265" y2="613.98" gradientTransform="matrix(1 0 0 -1 0 1224.47)">
		<stop  offset="0" style="stop-color:#FAD961"/>
		<stop  offset="1" style="stop-color:#FF6B02"/>
	</linearGradient>
	<rect x="-265" y="609.5" class="st2" width="138" height="2"/>
</g>
</svg>
