<?xml version="1.0" encoding="utf-8"?>
<!-- Generator: Adobe Illustrator 19.0.0, SVG Export Plug-In . SVG Version: 6.00 Build 0)  -->
<svg version="1.1" id="图层_1" xmlns="http://www.w3.org/2000/svg" xmlns:xlink="http://www.w3.org/1999/xlink" x="0px" y="0px"
	 viewBox="-469 549.5 285 125" style="enable-background:new -469 549.5 285 125;" xml:space="preserve">
<style type="text/css">
	.st0{enable-background:new    ;}
	.st1{fill:#FFFFFF;}
	.st2{fill:url(#SVGID_1_);}
</style>
<g>
	<g class="st0">
		<path class="st1" d="M-468.2,653.4v-1.2h9v1.2h-1.4v13.4c0.7-0.1,1.3-0.2,2.1-0.3v1.3l-2.1,0.3v5h-1.3v-4.7
			c-2,0.3-4.1,0.7-6.3,1.2l-0.3-1.4c0.6-0.1,1.1-0.2,1.7-0.3v-14.5H-468.2z M-465.4,653.4v3.8h3.6v-3.8H-465.4z M-465.4,658.4v3.9
			h3.6v-3.9H-465.4z M-465.4,667.7l3.6-0.6v-3.7h-3.6V667.7z M-458.4,656.8v-1.3h5.8c1.1-1.7,2-3.3,2.7-4.9l1.3,0.6
			c-0.8,1.4-1.7,2.8-2.6,4.3h3.9v1.3h-5.2v2.6c0,0.7,0,1.4,0,2h6v1.3h-5.9c0.6,2.3,1.3,4.1,2.3,5.3c0.9,1.3,2.2,2.5,3.8,3.6
			c-0.3,0.4-0.7,0.8-1,1.3c-1.6-1.2-2.9-2.5-3.8-3.8c-0.9-1.3-1.6-2.9-2-4.8c-0.3,1.9-0.9,3.5-1.9,4.8c-0.9,1.3-2.2,2.6-3.9,3.9
			c-0.3-0.3-0.6-0.7-1-1.1c1.8-1.3,3.2-2.7,4.1-4.1c0.9-1.4,1.5-3.1,1.8-5.1h-5.2v-1.3h5.3c0.1-0.6,0.1-1.2,0.1-1.9v-2.7H-458.4z
			 M-455.3,654.9c-0.7-1.2-1.5-2.4-2.3-3.6l1.1-0.6c0.3,0.4,0.7,0.9,1.2,1.6c0.5,0.7,0.8,1.3,1.2,1.9L-455.3,654.9z"/>
		<path class="st1" d="M-443,656.3V655h2.8v-4.6h1.3v4.6h2.4v1.3h-2.4v5.3c0.9-0.2,1.7-0.4,2.4-0.7c0,0.5,0,1,0.1,1.4l-2.5,0.7v7.2
			c0.1,1.8-0.6,2.6-2.2,2.6c-0.7,0-1.4,0-2.1,0c-0.1-0.5-0.2-0.9-0.3-1.5c0.7,0.1,1.4,0.1,2,0.1c0.8,0,1.3-0.5,1.3-1.4v-6.7
			c-1,0.3-1.9,0.6-2.8,0.9l-0.3-1.5c0.9-0.3,2-0.5,3.1-0.8v-5.7H-443z M-436.3,664.4v-1.2h4.2c0.5-0.8,1-1.7,1.4-2.4l1.4,0.4
			c-0.3,0.7-0.7,1.4-1.2,2.1h9.2v1.2h-3c-0.8,1.9-1.8,3.4-3,4.6c1.9,0.8,3.9,1.6,5.9,2.5l-0.9,1.3c-2.3-1.1-4.3-2.1-6.1-2.8
			c-1.8,1.3-4.6,2.3-8.3,3c-0.2-0.5-0.4-1-0.7-1.4c3.3-0.6,5.8-1.4,7.4-2.4c-1.4-0.7-3-1.4-4.8-2.2c0.7-0.8,1.3-1.8,2-2.7H-436.3z
			 M-436.3,660v-1.3h8.6c0.9-1.2,1.8-2.5,2.5-3.8l1.2,0.7c-0.7,1-1.4,2.1-2.3,3.1h4.9v1.3H-436.3z M-435.5,654.6v-1.2h6.8
			c-0.3-0.8-0.8-1.6-1.3-2.4l1.4-0.5c0.5,0.9,0.9,1.8,1.3,2.5l-1,0.4h6.4v1.2H-435.5z M-431.3,658.7c-0.3-0.4-0.6-0.9-1-1.5
			c-0.4-0.6-0.8-1.1-1.1-1.6l1.1-0.6c0.8,1,1.5,2,2.3,2.9L-431.3,658.7z M-433,666.8c1.4,0.5,2.8,1.1,4.2,1.7c1.2-1,2.2-2.3,2.9-4
			h-5.5C-431.9,665.4-432.5,666.1-433,666.8z"/>
		<path class="st1" d="M-417.9,657.8v-1.3h3v-4.7h1.4v4.7h4.7v-5.8h1.4v5.8h6.4v-5.8h1.4v5.8h3.3v1.3h-3.3v8.3h-9.1v-8.3h-4.7v12.9
			h16.6v1.4h-17.9v-14.3H-417.9z M-407.4,657.8v7.1h6.4v-7.1H-407.4z"/>
		<path class="st1" d="M-371.8,667.3c-2.3-0.7-4.2-1.5-5.7-2.4c-1.5-0.9-2.8-2-4-3.4h-1.1c-1.2,1.2-2.6,2.4-4.2,3.3
			c-1.5,1-3.4,1.9-5.6,2.8c-0.2-0.4-0.5-0.8-0.8-1.2c3.8-1.4,6.7-3.1,8.8-5h-6.5v-9.9h17.4v9.9h-6.6c2,2,4.9,3.5,8.8,4.5
			C-371.4,666.5-371.6,666.9-371.8,667.3z M-390.2,673.1c-0.3-0.3-0.6-0.7-0.9-1.1c2.4-1.1,3.8-2.4,4.1-4c0.2-0.8,0.3-1.7,0.3-2.8
			h1.4c0,1-0.1,2-0.3,2.8C-385.9,670.1-387.5,671.8-390.2,673.1z M-389.4,652.8v3.1h6.7v-3.1H-389.4z M-389.4,657.1v3.1h6.7v-3.1
			H-389.4z M-374.7,652.8h-6.7v3.1h6.7V652.8z M-381.4,657.1v3.1h6.7v-3.1H-381.4z M-378.7,673v-7.7h1.4v7.7H-378.7z"/>
		<path class="st1" d="M-364.1,669.2h1.8v1.8c0,1.7-0.3,3.2-0.9,4.5h-0.9c0.5-1.3,0.8-2.8,0.8-4.5h-0.8V669.2z"/>
		<path class="st1" d="M-341,663.4c-0.1-0.3-0.1-0.7-0.2-1.1c7.1,0,13.1-0.1,17.9-0.3l0.2,1.1c-2.4,0.1-5.1,0.1-7.9,0.2v1.8h7.6v1.1
			h-7.6v1.9h9.9v1.1h-9.9v1c0.1,1.7-0.8,2.6-2.8,2.6c-1,0.1-2,0.1-3.1,0.1c-0.1-0.5-0.1-0.9-0.2-1.5c1.2,0.1,2.2,0.1,3.1,0.1
			c1.2,0.1,1.7-0.4,1.7-1.5v-0.9h-10.3V668h10.3v-1.9h-8.7V665h8.7v-1.8C-335.4,663.3-338.2,663.4-341,663.4z M-342.1,657.5v-3.9
			h5.8c-1-0.7-2.1-1.4-3.1-2.2l0.9-0.9c1.2,0.8,2.3,1.6,3.3,2.4l-0.7,0.7h3.3v-3.2h1.4v3.2h3.2l-0.8-0.7c0.5-0.3,1.1-0.7,1.8-1.2
			c0.7-0.5,1.2-0.8,1.6-1.2l1,0.9c-1,0.7-2.1,1.4-3.2,2.2h6v3.9h-1.3v-2.8h-17.9v2.8H-342.1z M-338.7,660.5v-4.2h13.5v4.2H-338.7z
			 M-337.3,657.4v2.2h10.8v-2.2H-337.3z"/>
		<path class="st1" d="M-317.6,656.3V655h2.9v-4.5h1.4v4.5h2.3v1.3h-2.3v5.5c0.8-0.3,1.6-0.5,2.4-0.7c0,0.5,0,1,0.1,1.4
			c-0.8,0.2-1.6,0.4-2.4,0.7v7c0.1,1.8-0.7,2.6-2.3,2.6c-0.7,0-1.4,0-2.1,0c-0.1-0.5-0.1-0.9-0.2-1.5c0.7,0.1,1.3,0.1,1.9,0.1
			c0.8,0,1.3-0.5,1.3-1.4v-6.6l-2.9,1l-0.3-1.6c1-0.2,2.1-0.5,3.2-0.8v-5.8H-317.6z M-309.4,664.5v-1.2h12.3v1.2h-5.5v6.3h6.6v1.2
			h-15v-1.2h7.1v-6.3H-309.4z M-309.2,662.4c-0.3-0.3-0.6-0.7-0.9-1.1c1.8-1.2,3.4-2.5,4.8-3.9l1,1
			C-305.7,659.7-307.4,661-309.2,662.4z M-309.8,657.9V654h13.2v3.9h-1.4v-2.6h-10.5v2.6H-309.8z M-303.2,653.9c-0.5-1-1-2-1.6-2.9
			l1.1-0.5c0.7,0.9,1.2,1.9,1.8,2.8L-303.2,653.9z M-297.3,662.3c-1.5-1.4-3.1-2.7-4.8-4l0.9-1c1.8,1.3,3.4,2.6,4.9,4L-297.3,662.3z
			"/>
		<path class="st1" d="M-291.2,655.8v-1.4h8.7v-4h1.4v4h8.8v1.4h-8.8v4.4h10.1v1.4h-9c1.2,1.8,2.6,3.4,4,4.6
			c1.4,1.2,3.1,2.4,5.1,3.5c-0.3,0.4-0.6,0.8-0.9,1.3c-2.2-1.4-4-2.8-5.5-4.2c-1.4-1.4-2.7-3.1-3.8-4.9v11.2h-1.4v-11.2
			c-1.2,2.1-2.5,3.9-3.9,5.3c-1.4,1.4-3.2,2.8-5.4,4.2c-0.3-0.4-0.6-0.8-0.9-1.3c2.2-1.2,3.9-2.5,5.3-3.8c1.4-1.3,2.6-2.9,3.8-4.7
			h-9v-1.4h10.1v-4.4H-291.2z"/>
		<path class="st1" d="M-266.1,655v-1.3h8.7v-3.3h1.4v3.3h8.8v1.3h-8.8v6.6h10.1v1.3h-9.4c1.3,1.6,2.7,2.9,4.3,3.9
			c1.5,1,3.3,2,5.4,2.8c-0.3,0.5-0.7,0.9-1,1.5c-4.1-1.9-7.2-4.3-9.4-7.2v9.2h-1.4v-9.3c-2.2,2.9-5.4,5.5-9.5,7.6
			c-0.2-0.4-0.5-0.8-0.9-1.3c3.9-1.8,7.1-4.2,9.7-7.2h-9.3v-1.3h10V655H-266.1z M-261.4,660.4c-0.9-1.2-1.8-2.4-2.7-3.5l1.1-0.8
			c0.9,1,1.8,2.2,2.7,3.4L-261.4,660.4z M-252.3,660.6l-1-0.9c1.1-1.2,2.1-2.4,3-3.6l1.2,0.9C-250,658.1-251.1,659.3-252.3,660.6z"
			/>
	</g>
	<g class="st0">
		<path class="st1" d="M-459.4,581.7c-1.1-0.6-2.3-1.1-3.3-1.5c1.9-3.4,3.6-6.7,4.9-9.9c1.4-3.2,2.6-6.7,3.8-10.5l3.4,1
			C-453,567.8-456,574.8-459.4,581.7z M-451.8,590.4c-0.2-1.1-0.4-2.3-0.7-3.6c1.7,0.1,3.4,0.1,5.3,0.1c2.7,0.2,3.9-0.9,3.7-3.5
			v-32.8h3.3v33.8c0.2,3.9-1.7,5.9-5.7,5.9C-447.6,590.3-449.6,590.4-451.8,590.4z M-424.9,581.1c-2.9-6.5-5.9-13.2-9.3-20.1
			l3.1-1.1c1.5,3,3.1,6.3,4.9,9.9c1.8,3.6,3.4,6.9,4.8,9.9L-424.9,581.1z"/>
		<path class="st1" d="M-416.3,569.9v-3h18.7v-16.2h3.2v16.2h18.5v3H-392c3.6,6.2,9.1,10.9,16.6,14.4c-0.8,1.1-1.4,2.1-2,3.1
			c-4.3-2.4-7.7-4.9-10.4-7.5c-2.6-2.6-4.8-5.7-6.6-9.3V591h-3.2v-20.3c-1.7,3.4-3.8,6.5-6.5,9.2c-2.7,2.7-6.2,5.5-10.8,8.2
			c-0.6-0.9-1.2-1.8-2-2.8c4.2-2.4,7.6-4.8,10.2-7.2c2.6-2.4,4.8-5.1,6.7-8.2H-416.3z M-405.3,563.9c-2.6-3.2-5.1-6.2-7.7-8.9
			l2.4-1.8c2.8,3,5.5,5.9,8,8.7L-405.3,563.9z M-386.9,564.1l-2.4-2c2.8-3,5.3-6,7.5-9l2.7,1.8
			C-381.5,557.8-384.1,560.9-386.9,564.1z"/>
		<path class="st1" d="M-369.6,556.7v-2.8h19.1v2.8h-6.7v10.9h5.8v2.8h-5.8v11.3c2.2-0.4,4.4-0.8,6.8-1.2c-0.1,0.9-0.1,1.9,0,3
			c-2.2,0.4-5.1,0.9-8.7,1.5c-3.6,0.6-7.3,1.4-11.2,2.2l-0.6-3.2c1.1-0.2,2.2-0.3,3.2-0.5v-19.6h2.9V583c1.6-0.3,3.2-0.6,4.8-0.9
			v-25.5H-369.6z M-353.2,590.9c-0.6-1-1.3-1.9-2.1-2.8c5-2.5,8.9-5.3,11.6-8.3c-2.6-3.7-4.4-8.6-5.4-14.5c-0.6,0.9-1.2,1.7-1.8,2.5
			c-0.6-0.8-1.3-1.7-2.1-2.5c3.3-4.3,6-9.3,8-15l3,0.9c-0.8,2.2-1.8,4.4-2.8,6.5h15.4v2.8h-3.8c-0.8,8-3,14.5-6.6,19.4
			c2.6,2.8,6.1,5.3,10.7,7.6c-0.8,1-1.5,2.1-2,3.1c-4.5-2.6-8-5.4-10.6-8.3C-344.6,585.4-348.4,588.3-353.2,590.9z M-346.3,560.5
			c-0.2,0.4-0.4,0.7-0.6,1c1,6.9,2.7,12.2,5.1,15.8c3-4.3,4.8-9.9,5.4-16.9H-346.3z"/>
		<path class="st1" d="M-285.2,568c-4.5-2.2-8.1-4.5-10.9-6.6c-2.8-2.2-5.3-4.6-7.5-7.4c-2.3,2.8-5,5.3-8,7.6c-3,2.3-6.7,4.7-11.1,7
			c-0.6-0.9-1.3-1.8-2-2.8c5-2.4,9.1-4.9,12.3-7.5c3.2-2.5,5.8-5.2,7.8-8.2l3.7,0.4c-0.3,0.4-0.7,0.9-1,1.2c2.3,2.9,5,5.3,7.9,7.4
			c2.9,2.1,6.5,4.1,10.8,6C-284.1,566.2-284.8,567.2-285.2,568z M-323.8,588.9v-2.9h6.6v-16h3.2v16h9.3v-22.9h3.2v9h12.5v2.8h-12.5
			v11h16.7v2.9H-323.8z"/>
		<path class="st1" d="M-276.2,590.7c-0.7-0.7-1.5-1.4-2.3-2c1.1-1.8,1.8-3.8,2.2-5.9c0.5-2.2,0.7-5.4,0.6-9.6v-20.9h11.8v33.4
			c0.1,2.8-1.2,4.2-4,4.4c-1.1,0-2.3,0-3.6,0c-0.1-1-0.3-1.9-0.5-2.8c0.9,0.1,2,0.1,3.2,0.1c1.5,0.1,2.2-0.7,2.2-2.2v-9.1h-6.3
			c-0.1,3.5-0.4,6.3-0.9,8.4C-274.2,586.8-275,588.8-276.2,590.7z M-272.8,555v8h6.2v-8H-272.8z M-272.8,573.6L-272.8,573.6l6.2,0.1
			v-8.2h-6.2V573.6z M-238.7,590.5c-3.7-1.9-6.6-3.9-8.8-6c-1.9,2-4.3,3.9-7.2,5.9c-0.7-0.8-1.4-1.7-2.1-2.6c3-1.9,5.4-3.7,7.3-5.5
			c-2.3-3-4.1-6.9-5.3-11.9l0.6-0.2h-2.7v20.7h-2.9v-38.3h19.7c-0.1,2.3-0.2,4.4-0.4,6.1c-0.1,3.6-2.1,5.4-6,5.2c-1.7,0-3.5,0-5.4,0
			c-0.1-0.8-0.2-1.6-0.4-2.6c1.6,0,3.2,0,5,0c2.8,0.1,4.1-0.8,4.1-2.8c0.1-1.3,0.2-2.4,0.2-3.3h-13.8v12.3h17.3v2.8
			c-1.6,4.9-3.6,8.8-5.9,11.8c2,2,4.9,3.8,8.5,5.4C-237.7,588.7-238.3,589.6-238.7,590.5z M-242.5,570.2h-9.7
			c1.3,4.2,2.8,7.5,4.6,9.9C-245.5,577.5-243.8,574.2-242.5,570.2z"/>
		<path class="st1" d="M-231.1,571.9c-0.4-0.9-0.9-1.8-1.5-2.8c7.4-1,13.3-2.4,17.8-4.1c-2.8-1.7-5.4-4-7.8-6.7
			c-2,1.9-4.3,3.9-6.8,5.9c-0.8-0.9-1.5-1.7-2.2-2.3c5.2-3.6,9.3-7.6,12.4-12l3.2,0.9c-0.8,1.1-1.7,2.1-2.5,3.1h21.9v2.9
			c-3.6,3.5-7.3,6.3-11.3,8.5c4.2,1.5,9.8,2.6,16.7,3.1c-0.5,1-0.9,1.9-1.4,2.9c-7.9-0.8-14.2-2.3-18.8-4.4
			C-216.3,568.9-222.9,570.6-231.1,571.9z M-211.6,590.2c-0.1-1.1-0.2-2.1-0.5-3.2c1.9,0.1,4.1,0.1,6.7,0.1c3.4,0.3,5.1-1.3,5.2-4.9
			c0.1-0.7,0.1-1.5,0.2-2.6s0.1-2,0.1-2.7h-14.5c-0.7,3.6-2.2,6.5-4.6,8.6c-2.3,2.1-6,4-11,5.7c-0.8-1.2-1.4-2.1-2-2.8
			c4.6-1.4,7.9-3,10.1-4.7c2.2-1.7,3.6-3.9,4.3-6.8h-11.7v-2.6h12.2c0.2-1.3,0.3-2.7,0.4-4.3h3.2c-0.1,1.5-0.3,3-0.4,4.3h17.4
			c-0.2,2.9-0.3,5.6-0.5,8.1c-0.2,2.8-0.8,4.8-2,5.9c-1.1,1.1-3.1,1.8-5.9,1.8C-207.5,590.2-209.8,590.2-211.6,590.2z M-200.6,556.5
			h-19.9c2.8,3.1,5.8,5.4,9.1,7.1C-207.6,561.9-204,559.5-200.6,556.5z"/>
	</g>
	
		<linearGradient id="SVGID_1_" gradientUnits="userSpaceOnUse" x1="-331" y1="615.98" x2="-469" y2="615.98" gradientTransform="matrix(1 0 0 -1 0 1224.47)">
		<stop  offset="0" style="stop-color:#FAD961"/>
		<stop  offset="1" style="stop-color:#FF6B02"/>
	</linearGradient>
	<rect x="-469" y="607.5" class="st2" width="138" height="2"/>
</g>
</svg>
